<svg width="32" height="32" viewBox="0 0 32 32" fill="none" xmlns="http://www.w3.org/2000/svg">
<rect width="32" height="32" rx="1" fill="#1A1A1A"/>
<path d="M9.44 5.472C9.968 5.112 10.592 4.824 11.288 4.632C11.96 4.44 12.656 4.344 13.352 4.344C13.952 4.344 14.264 4.392 14.264 4.392L14.24 5.88L12.872 5.904C12.368 5.904 11.864 5.976 11.336 6.12C10.808 6.264 10.352 6.48 9.92 6.72V13.512H12.272V15H6.032V13.512H8.048V6.648L5.744 5.856L6.248 4.368L9.44 5.472Z" fill="#F5F3EF"/>
<path d="M6.008 29L5.984 27.512H8V20.624L5.696 19.832L6.2 18.344L9.368 19.448C9.824 19.112 10.352 18.848 10.928 18.656C11.504 18.464 12.08 18.344 12.608 18.344C13.424 18.344 14.12 18.464 14.696 18.656C15.272 18.872 15.728 19.184 16.064 19.592C16.472 19.232 17 18.944 17.624 18.704C18.272 18.464 18.896 18.344 19.472 18.344C20.936 18.344 21.992 18.68 22.64 19.304C23.288 19.952 23.6 20.984 23.6 22.4V27.512H25.616V29H20.648V27.512H21.728V22.784C21.728 21.728 21.56 20.984 21.2 20.552C20.84 20.12 20.216 19.88 19.352 19.88C18.848 19.88 18.344 19.976 17.864 20.12C17.384 20.264 17 20.456 16.736 20.696V27.512H17.816V29H13.784V27.512H14.864V22.784C14.864 21.728 14.696 20.984 14.336 20.552C13.976 20.12 13.352 19.88 12.488 19.88C11.984 19.88 11.48 19.976 11 20.12C10.52 20.264 10.136 20.456 9.896 20.696V27.512H10.976V29H6.008Z" fill="#F5F3EF"/>
</svg>
