<svg width="105" height="16" viewBox="0 0 105 16" fill="none" xmlns="http://www.w3.org/2000/svg">
<path d="M2.77238 4.59002C3.16838 4.32002 3.63638 4.10402 4.15838 3.96002C4.66238 3.81602 5.18438 3.74402 5.70638 3.74402C6.15638 3.74402 6.39038 3.78002 6.39038 3.78002L6.37238 4.89602L5.34638 4.91402C4.96838 4.91402 4.59038 4.96802 4.19438 5.07602C3.79838 5.18402 3.45638 5.34602 3.13238 5.52602V10.62H4.89638V11.736H0.216383V10.62H1.72838V5.47202L0.000382837 4.87802L0.378383 3.76202L2.77238 4.59002ZM11.452 3.74402C12.244 3.74402 12.946 3.92402 13.54 4.24802C14.134 4.57202 14.602 5.05802 14.944 5.67002C15.268 6.28202 15.448 7.02002 15.448 7.88402C15.448 9.18002 15.07 10.188 14.35 10.908C13.612 11.646 12.64 12.006 11.452 12.006C10.678 12.006 9.99404 11.844 9.40004 11.52C8.80604 11.196 8.33804 10.71 8.01404 10.098C7.69004 9.48602 7.52804 8.74802 7.52804 7.88402C7.52804 7.02002 7.69004 6.28202 8.01404 5.67002C8.33804 5.05802 8.80604 4.57202 9.40004 4.24802C9.99404 3.92402 10.678 3.74402 11.452 3.74402ZM11.47 4.89602C10.642 4.89602 10.012 5.16602 9.59804 5.68802C9.16604 6.21002 8.96804 6.94802 8.96804 7.88402C8.96804 8.83802 9.16604 9.57602 9.59804 10.08C10.012 10.602 10.642 10.854 11.47 10.854C12.316 10.854 12.946 10.602 13.378 10.08C13.792 9.57602 14.008 8.83802 14.008 7.88402C14.008 6.94802 13.792 6.21002 13.378 5.68802C12.946 5.16602 12.316 4.89602 11.47 4.89602ZM16.5812 11.736V10.62H18.0932V5.45402L16.3652 4.86002L16.7432 3.74402L19.1372 4.57202C19.5512 4.30202 20.0012 4.10402 20.4692 3.96002C20.9372 3.81602 21.4052 3.74402 21.8732 3.74402C22.4492 3.74402 22.9712 3.87002 23.4572 4.08602C23.9432 4.30202 24.3392 4.64402 24.6272 5.09402C24.9152 5.54402 25.0772 6.10202 25.0772 6.78602V10.62H26.5892V11.736H22.8632V10.62H23.6732V7.07402C23.6732 6.31802 23.4752 5.76002 23.0792 5.41802C22.6832 5.07602 22.2152 4.89602 21.6392 4.89602C21.2972 4.89602 20.9372 4.95002 20.5772 5.05802C20.2172 5.16602 19.8572 5.31002 19.4972 5.50802V10.62H20.3072V11.736H16.5812ZM27.6529 4.01402H30.5689V10.62H32.0629V11.736H27.6529V10.62H29.1469V5.13002H27.6529V4.01402ZM29.6689 0.180023C29.9929 0.180023 30.2629 0.288022 30.4789 0.486023C30.6769 0.702022 30.7849 0.972022 30.7849 1.29602C30.7849 1.63802 30.6769 1.90802 30.4789 2.10602C30.2629 2.32202 29.9929 2.41202 29.6689 2.41202C29.3269 2.41202 29.0569 2.32202 28.8589 2.10602C28.6609 1.90802 28.5709 1.63802 28.5709 1.29602C28.5709 0.972022 28.6609 0.702022 28.8589 0.486023C29.0569 0.288022 29.3269 0.180023 29.6689 0.180023Z" fill="#9A9690"/>
<path d="M33.2277 11.736L33.2097 10.62H34.7217V5.45402L32.9937 4.86002L33.3717 3.74402L35.7477 4.57202C36.0897 4.32002 36.4857 4.12202 36.9177 3.97802C37.3497 3.83402 37.7817 3.74402 38.1777 3.74402C38.7897 3.74402 39.3117 3.83402 39.7437 3.97802C40.1757 4.14002 40.5177 4.37402 40.7697 4.68002C41.0757 4.41002 41.4717 4.19402 41.9397 4.01402C42.4257 3.83402 42.8937 3.74402 43.3257 3.74402C44.4237 3.74402 45.2157 3.99602 45.7017 4.46402C46.1877 4.95002 46.4217 5.72402 46.4217 6.78602V10.62H47.9337V11.736H44.2077V10.62H45.0177V7.07402C45.0177 6.28202 44.8917 5.72402 44.6217 5.40002C44.3517 5.07602 43.8837 4.89602 43.2357 4.89602C42.8577 4.89602 42.4797 4.96802 42.1197 5.07602C41.7597 5.18402 41.4717 5.32802 41.2737 5.50802V10.62H42.0837V11.736H39.0597V10.62H39.8697V7.07402C39.8697 6.28202 39.7437 5.72402 39.4737 5.40002C39.2037 5.07602 38.7357 4.89602 38.0877 4.89602C37.7097 4.89602 37.3317 4.96802 36.9717 5.07602C36.6117 5.18402 36.3237 5.32802 36.1437 5.50802V10.62H36.9537V11.736H33.2277ZM54.6443 11.214C53.8523 11.754 53.0063 12.024 52.1063 12.024C51.0983 12.024 50.3243 11.808 49.8023 11.412C49.2803 10.998 49.0103 10.404 49.0103 9.63002C48.9743 8.04602 49.9823 7.27202 51.9983 7.27202L54.3203 7.29002C54.3203 6.48002 54.1583 5.88602 53.8703 5.49002C53.5643 5.09402 53.1143 4.91402 52.5023 4.91402C52.2143 4.91402 51.9263 4.93202 51.6563 4.96802C51.3683 5.00402 51.1163 5.05802 50.8823 5.13002L50.7023 6.12002L49.5503 5.90402L49.8383 4.26602C50.2883 4.08602 50.7383 3.96002 51.1703 3.88802C51.6023 3.79802 52.0343 3.76202 52.4483 3.76202C53.5283 3.76202 54.3383 4.05002 54.8963 4.62602C55.4363 5.20202 55.7243 6.06602 55.7243 7.20002V10.332L57.4343 10.89L57.0743 12.042L54.6443 11.214ZM52.0523 8.40602C51.5303 8.40602 51.1343 8.49602 50.8643 8.71202C50.5763 8.91002 50.4503 9.21602 50.4503 9.61202C50.4503 10.44 51.0263 10.872 52.1783 10.872C53.0063 10.872 53.7083 10.638 54.3203 10.188V8.42402L52.0523 8.40602ZM60.6044 4.59002C61.0004 4.32002 61.4684 4.10402 61.9904 3.96002C62.4944 3.81602 63.0164 3.74402 63.5384 3.74402C63.9884 3.74402 64.2224 3.78002 64.2224 3.78002L64.2044 4.89602L63.1784 4.91402C62.8004 4.91402 62.4224 4.96802 62.0264 5.07602C61.6304 5.18402 61.2884 5.34602 60.9644 5.52602V10.62H62.7284V11.736H58.0484V10.62H59.5604V5.47202L57.8324 4.87802L58.2104 3.76202L60.6044 4.59002ZM68.9199 9.61202C67.8219 9.61202 66.9579 9.36002 66.3279 8.85602C65.6979 8.35202 65.3739 7.63202 65.3739 6.73202C65.3739 5.81402 65.6979 5.09402 66.3279 4.55402C66.9759 4.01402 67.8399 3.74402 68.9199 3.74402C69.3879 3.74402 69.7839 3.79802 70.1439 3.87002C70.5039 3.96002 70.8279 4.08602 71.1339 4.24802L73.6899 3.29402L74.1039 4.48202L71.9799 4.96802C72.1599 5.20202 72.2859 5.45402 72.3759 5.72402C72.4659 6.01202 72.5199 6.31802 72.5199 6.64202C72.5199 7.25402 72.3579 7.77602 72.0699 8.22602C71.7819 8.67602 71.3679 9.01802 70.8279 9.25202C70.2879 9.50402 69.6399 9.61202 68.9199 9.61202ZM69.0459 15.75C68.6679 15.75 68.2179 15.714 67.7139 15.642C67.1919 15.552 66.7059 15.444 66.2379 15.3C65.7699 15.156 65.4279 15.03 65.2119 14.886L65.7159 13.824C66.1479 14.058 66.6699 14.238 67.3179 14.364C67.9479 14.508 68.5239 14.562 69.0639 14.562C69.5679 14.562 70.0179 14.526 70.3779 14.454C70.7379 14.382 71.0079 14.256 71.2059 14.094C71.4039 13.932 71.5119 13.716 71.5119 13.464C71.5119 13.086 71.3499 12.816 71.0259 12.636C70.7019 12.456 70.2339 12.366 69.6399 12.366H67.0659V8.82002L68.4339 9.27002V11.25H70.0179C70.9719 11.25 71.6919 11.43 72.1779 11.772C72.6459 12.132 72.8979 12.654 72.8979 13.338C72.8979 13.842 72.7359 14.274 72.4299 14.634C72.1239 14.994 71.6919 15.282 71.1159 15.462C70.5399 15.66 69.8559 15.75 69.0459 15.75ZM68.9559 8.47802C69.6039 8.47802 70.1259 8.29802 70.5219 7.97402C70.8999 7.63202 71.0979 7.20002 71.0979 6.67802C71.0979 6.12002 70.9179 5.68802 70.5579 5.38202C70.1979 5.05802 69.6579 4.91402 68.9559 4.91402C68.2359 4.91402 67.7139 5.05802 67.3539 5.38202C66.9939 5.68802 66.8139 6.12002 66.8139 6.67802C66.8139 7.20002 66.9939 7.63202 67.3899 7.97402C67.7679 8.29802 68.2899 8.47802 68.9559 8.47802ZM78.3895 3.74402C79.1815 3.74402 79.8835 3.92402 80.4775 4.24802C81.0715 4.57202 81.5395 5.05802 81.8815 5.67002C82.2055 6.28202 82.3855 7.02002 82.3855 7.88402C82.3855 9.18002 82.0075 10.188 81.2875 10.908C80.5495 11.646 79.5775 12.006 78.3895 12.006C77.6155 12.006 76.9315 11.844 76.3375 11.52C75.7435 11.196 75.2755 10.71 74.9515 10.098C74.6275 9.48602 74.4655 8.74802 74.4655 7.88402C74.4655 7.02002 74.6275 6.28202 74.9515 5.67002C75.2755 5.05802 75.7435 4.57202 76.3375 4.24802C76.9315 3.92402 77.6155 3.74402 78.3895 3.74402ZM78.4075 4.89602C77.5795 4.89602 76.9495 5.16602 76.5355 5.68802C76.1035 6.21002 75.9055 6.94802 75.9055 7.88402C75.9055 8.83802 76.1035 9.57602 76.5355 10.08C76.9495 10.602 77.5795 10.854 78.4075 10.854C79.2535 10.854 79.8835 10.602 80.3155 10.08C80.7295 9.57602 80.9455 8.83802 80.9455 7.88402C80.9455 6.94802 80.7295 6.21002 80.3155 5.68802C79.8835 5.16602 79.2535 4.89602 78.4075 4.89602ZM83.5283 11.736V10.62H85.0403V1.54802L83.2403 1.15202L83.5463 2.2769e-05L86.4443 0.666023V10.62H87.9563V11.736H83.5283ZM89.0181 4.01402H91.9341V10.62H93.4281V11.736H89.0181V10.62H90.5121V5.13002H89.0181V4.01402ZM91.0341 0.180023C91.3581 0.180023 91.6281 0.288022 91.8441 0.486023C92.0421 0.702022 92.1501 0.972022 92.1501 1.29602C92.1501 1.63802 92.0421 1.90802 91.8441 2.10602C91.6281 2.32202 91.3581 2.41202 91.0341 2.41202C90.6921 2.41202 90.4221 2.32202 90.2241 2.10602C90.0261 1.90802 89.9361 1.63802 89.9361 1.29602C89.9361 0.972022 90.0261 0.702022 90.2241 0.486023C90.4221 0.288022 90.6921 0.180023 91.0341 0.180023ZM94.5929 11.736V10.62H96.1049V5.45402L94.3769 4.86002L94.7549 3.74402L97.1489 4.57202C97.5629 4.30202 98.0129 4.10402 98.4809 3.96002C98.9489 3.81602 99.4169 3.74402 99.8849 3.74402C100.461 3.74402 100.983 3.87002 101.469 4.08602C101.955 4.30202 102.351 4.64402 102.639 5.09402C102.927 5.54402 103.089 6.10202 103.089 6.78602V10.62H104.601V11.736H100.875V10.62H101.685V7.07402C101.685 6.31802 101.487 5.76002 101.091 5.41802C100.695 5.07602 100.227 4.89602 99.6509 4.89602C99.3089 4.89602 98.9489 4.95002 98.5889 5.05802C98.2289 5.16602 97.8689 5.31002 97.5089 5.50802V10.62H98.3189V11.736H94.5929Z" fill="#1A1A1A"/>
</svg>
